<svg width="13" height="13" viewBox="0 0 13 13" fill="none" xmlns="http://www.w3.org/2000/svg">
<path fill-rule="evenodd" clip-rule="evenodd" d="M12.8633 6.50391C12.8633 8.09521 12.2311 9.62133 11.1059 10.7465C9.9807 11.8718 8.45458 12.5039 6.86328 12.5039C5.27198 12.5039 3.74586 11.8718 2.62064 10.7465C1.49542 9.62133 0.863281 8.09521 0.863281 6.50391C0.863281 4.91261 1.49542 3.38648 2.62064 2.26127C3.74586 1.13605 5.27198 0.503906 6.86328 0.503906C8.45458 0.503906 9.9807 1.13605 11.1059 2.26127C12.2311 3.38648 12.8633 4.91261 12.8633 6.50391H12.8633ZM9.96628 6.19991C10.0605 6.07248 10.1119 5.9185 10.1131 5.76004C10.1144 5.60159 10.0654 5.44681 9.97328 5.31791L9.89328 5.22391L9.80928 5.15091C9.68186 5.05672 9.52787 5.0053 9.36942 5.00405C9.21097 5.00279 9.05619 5.05175 8.92728 5.14391L8.83328 5.22391L6.86328 7.19291L4.89328 5.22291L4.80928 5.15091C4.66479 5.04338 4.48642 4.99145 4.30679 5.0046C4.12716 5.01775 3.95826 5.0951 3.83096 5.22252C3.70367 5.34994 3.62648 5.51891 3.6135 5.69856C3.60052 5.8782 3.65262 6.05651 3.76028 6.20091L3.83328 6.28391L6.33328 8.78391L6.41728 8.85691C6.54471 8.9511 6.69869 9.00251 6.85714 9.00377C7.0156 9.00502 7.17038 8.95606 7.29928 8.86391L7.39328 8.78391L9.89328 6.28391L9.96628 6.19991Z" fill="white"/>
</svg>
